<svg xmlns="http://www.w3.org/2000/svg" viewBox="0 0 36.25 41.63"><defs><style>.cls-1{fill:#fff;}</style></defs><title>Asset 10</title><g id="Layer_2" data-name="Layer 2"><g id="Insomniac"><path class="cls-1" d="M0,12l6.79,2a9.87,9.87,0,0,1,8.8-7c7.16-.59,9.87,6.73,9.87,6.73l6.74-2S28.92,0,16.1,0,0,12,0,12Z"/><path class="cls-1" d="M0,22.44l6.79-2a9.87,9.87,0,0,0,8.8,7c7.16.58,9.87-6.74,9.87-6.74l6.74,2S28.92,34.48,16.1,34.44,0,22.44,0,22.44Z"/><path class="cls-1" d="M22.66,38.53v3.09a14.14,14.14,0,0,0,13.59-10l-3-1.12S32.23,38.24,22.66,38.53Z"/><path class="cls-1" d="M16.15,12.56a5,5,0,0,0-3.56,1.34,4.54,4.54,0,0,0,0,6.63,5,5,0,0,0,3.56,1.35,4.89,4.89,0,0,0,3.46-1.35,4.54,4.54,0,0,0,0-6.63A4.93,4.93,0,0,0,16.15,12.56Z"/></g></g></svg>